<svg width="1274" height="531" viewBox="0 0 1274 531" fill="none" xmlns="http://www.w3.org/2000/svg">
<rect width="1274" height="531" rx="149" fill="#FF79C6"/>
<path d="M313.816 181.319H327.824C325.956 189.413 325.023 196.884 325.023 203.732C325.023 213.278 325.956 225.626 327.824 240.776L313.816 243.266C312.156 231.022 308.939 221.268 304.166 214.005C295.865 201.346 282.687 195.016 264.632 195.016C249.69 195.016 238.069 198.855 229.768 206.534C221.674 214.212 217.627 222.617 217.627 231.748C217.627 238.389 219.184 243.992 222.297 248.558C225.617 253.124 230.183 256.548 235.994 258.831C242.012 260.906 246.889 262.359 250.624 263.189C254.36 263.811 259.133 264.434 264.944 265.056C278.018 266.509 287.564 267.962 293.582 269.415C299.808 270.66 305.411 272.942 310.392 276.263C323.259 284.979 329.692 297.016 329.692 312.373C329.692 329.182 323.259 342.256 310.392 351.595C297.525 360.726 282.687 365.292 265.877 365.292C248.86 365.292 234.645 360.519 223.231 350.973C222.401 350.142 221.57 349.727 220.74 349.727C219.703 349.727 218.665 350.558 217.627 352.218C216.797 354.708 215.863 359.377 214.826 366.226H200.818C202.685 357.302 203.619 348.067 203.619 338.521C203.619 333.955 202.685 322.956 200.818 305.524H214.826C217.316 317.976 220.844 327.211 225.41 333.229C233.711 344.228 246.474 349.727 263.698 349.727C280.923 349.727 293.375 346.096 301.053 338.832C308.939 331.569 312.882 323.164 312.882 313.618C312.882 308.43 311.845 303.968 309.769 300.232C307.694 296.289 305.204 293.28 302.298 291.205C299.601 288.922 295.969 287.054 291.403 285.602C287.045 284.149 283.413 283.215 280.508 282.8C277.603 282.385 273.971 281.97 269.613 281.555C262.557 280.932 256.85 280.31 252.492 279.687C248.341 279.065 242.531 277.612 235.06 275.329C227.796 273.046 221.985 270.348 217.627 267.235C213.269 264.123 209.326 259.661 205.798 253.85C202.478 247.832 200.818 240.88 200.818 232.994C200.818 218.467 206.732 205.911 218.561 195.327C230.598 184.744 245.332 179.452 262.765 179.452C277.706 179.452 290.573 183.706 301.365 192.215C305.308 195.12 307.694 196.573 308.524 196.573C309.769 196.573 310.599 196.054 311.015 195.016C311.43 193.978 312.156 190.762 313.194 185.366C313.609 183.706 313.816 182.357 313.816 181.319ZM375.452 184.744H524.871L530.163 258.208L515.221 260.076L510.863 199.374H457.944V345.369H495.61V360H404.713V345.369H442.379V199.374H389.46L385.102 260.076L370.16 258.208L375.452 184.744ZM578.724 184.744H645.652L711.334 345.369H727.21V360H663.395V345.369H695.147L677.403 302.1H596.156L578.724 345.369H610.476V360H546.661V345.369H563.16L623.239 199.374H578.724V184.744ZM672.111 288.403L636.935 203.11L601.76 288.403H672.111ZM744.331 184.744H824.332C835.331 184.744 843.84 185.262 849.858 186.3C855.876 187.338 861.48 189.62 866.668 193.148C872.063 196.884 876.525 202.383 880.053 209.647C883.789 216.91 885.657 224.277 885.657 231.748C885.657 242.747 881.817 253.02 874.139 262.566C866.46 272.112 854.424 277.716 838.029 279.376C845.5 286.432 860.338 308.43 882.544 345.369H909.937V360H871.026C863.97 344.643 854.009 326.899 841.142 306.769C836.161 299.091 832.53 293.799 830.247 290.894C827.964 287.781 824.955 285.187 821.219 283.111C817.484 280.828 813.022 279.687 807.834 279.687H785.421V345.369H813.126V360H744.331V345.369H769.857V199.374H744.331V184.744ZM823.71 199.374H785.421V265.056H814.371C819.559 265.056 823.606 265.056 826.511 265.056C829.624 264.849 834.19 264.226 840.208 263.189C846.434 261.944 851.311 260.283 854.839 258.208C858.367 255.925 861.583 252.501 864.489 247.935C867.394 243.162 868.847 237.455 868.847 230.815C868.847 219.401 864.489 210.684 855.773 204.666C850.584 201.138 839.897 199.374 823.71 199.374ZM935.774 184.744H1085.19L1090.49 258.208L1075.54 260.076L1071.19 199.374H1018.27V345.369H1055.93V360H965.036V345.369H1002.7V199.374H949.782L945.424 260.076L930.482 258.208L935.774 184.744Z" fill="black"/>
</svg>
